<svg width="866" height="246" viewBox="0 0 866 246" fill="none" xmlns="http://www.w3.org/2000/svg">
<path d="M0.00338378 9.19531H47.8574C47.8574 9.19531 101.113 122.252 101.404 122.756C101.404 122.756 83.5552 154.113 53.5975 123.046L0 9.19531H0.00338378Z" fill="#41C4FA"/>
<path d="M89.5386 172.153C114.24 178.715 127.937 166.075 134.212 154.304C134.928 152.959 142.896 137.226 149.552 120.824C124.273 154.014 103.625 128.349 101.408 122.754C101.408 122.754 82.8825 154.206 53.3574 122.562C53.5163 122.954 53.8205 123.441 53.9828 123.833C61.8661 140.461 67.7921 153.098 68.4073 154.304C75.3542 167.907 88.3724 171.846 89.5386 172.153Z" fill="url(#paint0_linear_7005_1831)"/>
<path d="M149.119 121.934C123.887 153.244 103.723 128.641 101.407 122.755L154.954 9.29297H202.666L149.119 121.937V121.934Z" fill="#E900CC"/>
<path d="M287 0C238.952 0 200 38.9523 200 87C200 135.048 238.952 174 287 174C335.048 174 374 135.048 374 87C374 38.9523 335.048 0 287 0ZM287 134.47C260.782 134.47 239.53 113.218 239.53 87C239.53 60.7817 260.782 39.5301 287 39.5301C313.218 39.5301 334.47 60.7817 334.47 87C334.47 113.218 313.218 134.47 287 134.47Z" fill="white"/>
<path d="M485.027 55.8099H526.428C526.428 55.8099 524.92 9.99281 476.914 2.24433C476.914 2.24433 420.117 -6.85171 400.847 24.1422C400.509 24.1422 380.9 50.7464 400.847 77.8728C400.847 77.5461 410.989 93.2047 448.177 100.616C448.177 100.953 494.494 108.028 485.704 129.252C485.027 132.958 468.8 149.465 442.43 135.653C442.43 135.653 434.316 131.947 430.936 118.135H388C388 118.135 391.154 143.59 409.647 157.776C410.681 158.568 411.699 159.377 412.72 160.185C417.071 163.625 433.985 176.002 467.786 173.722C481.271 172.812 495.521 169.891 506.664 162.267C516.617 155.459 526.198 142.95 527.625 128.578C527.5 129.525 532.801 104.12 507.232 86.2985C507.449 86.6354 500.579 79.7291 456.967 68.9486C456.967 68.3793 435.787 65.1721 433.637 52.2456C432.883 47.7111 434.823 43.1731 438.441 40.3197C444.367 35.647 464.067 31.8907 476.914 40.3129C476.914 40.6498 483.675 43.345 485.027 55.8099Z" fill="white"/>
<path d="M528 5H576.715L620.168 120.982L657.887 5H705L643.378 174.07C643.378 174.07 620.505 253.534 553.229 245.418V203.827C553.229 203.827 587.203 206.87 596.622 171.365C596.622 170.689 528 5 528 5Z" fill="white"/>
<path d="M785.5 2C741.04 2 705 38.0762 705 82.5804V173H747.199V82.4107C747.199 61.2359 764.346 44.0714 785.5 44.0714C806.654 44.0714 823.801 61.2359 823.801 82.4107V173H866V82.5804C866 38.0762 829.96 2 785.5 2Z" fill="white"/>
<defs>
<linearGradient id="paint0_linear_7005_1831" x1="56.2984" y1="147.388" x2="230.004" y2="147.388" gradientUnits="userSpaceOnUse">
<stop stop-color="#41C4FA"/>
<stop offset="0.05" stop-color="#49B1FA"/>
<stop offset="0.15" stop-color="#5891FA"/>
<stop offset="0.26" stop-color="#6576FA"/>
<stop offset="0.38" stop-color="#6E61FA"/>
<stop offset="0.51" stop-color="#7552FA"/>
<stop offset="0.67" stop-color="#7949FA"/>
<stop offset="0.92" stop-color="#7B47FB"/>
</linearGradient>
</defs>
</svg>
