<svg width="141" height="39" viewBox="0 0 141 39" fill="none" xmlns="http://www.w3.org/2000/svg">
<path d="M1.18023 1.4552H8.84124C8.84124 1.4552 17.3671 19.3477 17.4136 19.4274C17.4136 19.4274 14.5562 24.3901 9.76017 19.4734L1.17969 1.4552H1.18023Z" fill="#41C4FA"/>
<path d="M15.5091 27.2452C19.4635 28.2837 21.6564 26.2833 22.6609 24.4205C22.7756 24.2075 24.0512 21.7176 25.1167 19.1218C21.0698 24.3744 17.7642 20.3127 17.4092 19.4273C17.4092 19.4273 14.4435 24.4049 9.7168 19.3968C9.74223 19.4589 9.79094 19.5359 9.81691 19.598C11.079 22.2296 12.0277 24.2295 12.1262 24.4205C13.2383 26.5733 15.3224 27.1966 15.5091 27.2452Z" fill="url(#paint0_linear_11069_41298)"/>
<path d="M25.0523 19.2973C21.0129 24.2524 17.7848 20.3587 17.4141 19.4273L25.9864 1.47058H33.6247L25.0523 19.2978V19.2973Z" fill="#E900CC"/>
<path d="M47.1252 0C39.4332 0 33.1973 6.16465 33.1973 13.7687C33.1973 21.3728 39.4332 27.5375 47.1252 27.5375C54.8172 27.5375 61.0532 21.3728 61.0532 13.7687C61.0532 6.16465 54.8172 0 47.1252 0ZM47.1252 21.2814C42.9279 21.2814 39.5257 17.9181 39.5257 13.7687C39.5257 9.61941 42.9279 6.25609 47.1252 6.25609C51.3225 6.25609 54.7247 9.61941 54.7247 13.7687C54.7247 17.9181 51.3225 21.2814 47.1252 21.2814Z" fill="#050811"/>
<path d="M78.8282 8.83256H85.4561C85.4561 8.83256 85.2147 1.58148 77.5292 0.355193C77.5292 0.355193 68.4366 -1.08436 65.3516 3.82078C65.2975 3.82078 62.1583 8.03121 65.3516 12.3243C65.3516 12.2726 66.9753 14.7507 72.9288 15.9237C72.9288 15.977 80.3436 17.0967 78.9364 20.4556C78.8282 21.0421 76.2303 23.6546 72.0087 21.4686C72.0087 21.4686 70.7098 20.8821 70.1685 18.6962H63.2949C63.2949 18.6962 63.7999 22.7248 66.7604 24.9699C66.926 25.0952 67.0889 25.2232 67.2524 25.3512C67.9489 25.8955 70.6567 27.8544 76.0679 27.4934C78.2269 27.3495 80.5082 26.8872 82.292 25.6807C83.8854 24.6031 85.4193 22.6235 85.6477 20.349C85.6276 20.4988 86.4763 16.4782 82.383 13.6577C82.4176 13.711 81.3178 12.618 74.336 10.9119C74.336 10.8218 70.9452 10.3142 70.601 8.26847C70.4803 7.55082 70.7909 6.83265 71.37 6.38105C72.3188 5.64155 75.4726 5.04707 77.5292 6.37999C77.5292 6.4333 78.6117 6.85984 78.8282 8.83256Z" fill="#050811"/>
<path d="M85.707 0.791382H93.5058L100.462 19.1469L106.501 0.791382H114.043L104.178 27.5487C104.178 27.5487 100.516 40.1247 89.7459 38.8403V32.258C89.7459 32.258 95.1849 32.7396 96.6928 27.1206C96.6928 27.0136 85.707 0.791382 85.707 0.791382Z" fill="#050811"/>
<path d="M126.93 0.316467C119.813 0.316467 114.043 6.02595 114.043 13.0692V27.3792H120.799V13.0424C120.799 9.69123 123.544 6.97475 126.93 6.97475C130.317 6.97475 133.062 9.69123 133.062 13.0424V27.3792H139.818V13.0692C139.818 6.02595 134.048 0.316467 126.93 0.316467Z" fill="#050811"/>
<defs>
<linearGradient id="paint0_linear_11069_41298" x1="10.1876" y1="23.3258" x2="37.9964" y2="23.3258" gradientUnits="userSpaceOnUse">
<stop stop-color="#41C4FA"/>
<stop offset="0.05" stop-color="#49B1FA"/>
<stop offset="0.15" stop-color="#5891FA"/>
<stop offset="0.26" stop-color="#6576FA"/>
<stop offset="0.38" stop-color="#6E61FA"/>
<stop offset="0.51" stop-color="#7552FA"/>
<stop offset="0.67" stop-color="#7949FA"/>
<stop offset="0.92" stop-color="#7B47FB"/>
</linearGradient>
</defs>
</svg>
