<svg width="131" height="139" viewBox="0 0 131 139" fill="none" xmlns="http://www.w3.org/2000/svg">
<g filter="url(#filter0_i_11085_3276)">
<path fill-rule="evenodd" clip-rule="evenodd" d="M50.6571 23.6731C72.4286 18.7437 97.1772 21.5084 108.832 40.5468C121.279 60.8793 116.462 87.1959 100.238 104.663C84.7598 121.328 60.1547 124.646 39.4391 115.258C19.1568 106.067 6.04565 85.3085 8.75294 63.206C11.3341 42.1332 29.9508 28.3612 50.6571 23.6731Z" fill="#222222"/>
</g>
<path fill-rule="evenodd" clip-rule="evenodd" d="M50.6571 23.6731C72.4286 18.7437 97.1772 21.5084 108.832 40.5468C121.279 60.8793 116.462 87.1959 100.238 104.663C84.7598 121.328 60.1547 124.646 39.4391 115.258C19.1568 106.067 6.04565 85.3085 8.75294 63.206C11.3341 42.1332 29.9508 28.3612 50.6571 23.6731Z" stroke="#EDA8E8" stroke-width="0.642597"/>
<g filter="url(#filter1_i_11085_3276)">
<path fill-rule="evenodd" clip-rule="evenodd" d="M60.9652 17.4698C82.2343 17.1449 104.754 25.7538 111.847 48.8374C119.421 73.4901 109.719 100.627 91.1365 115.669C73.4091 130.019 49.818 127.969 32.3688 113.174C15.2846 98.6885 7.17557 73.4275 14.0768 50.3309C20.6566 28.3102 40.7367 17.7788 60.9652 17.4698Z" fill="#222222"/>
</g>
<path fill-rule="evenodd" clip-rule="evenodd" d="M60.9652 17.4698C82.2343 17.1449 104.754 25.7538 111.847 48.8374C119.421 73.4901 109.719 100.627 91.1365 115.669C73.4091 130.019 49.818 127.969 32.3688 113.174C15.2846 98.6885 7.17557 73.4275 14.0768 50.3309C20.6566 28.3102 40.7367 17.7788 60.9652 17.4698Z" stroke="#7595FA" stroke-width="0.642597"/>
<path fill-rule="evenodd" clip-rule="evenodd" d="M58.923 22.7199C80.0166 21.5443 102.982 29.0446 109.83 48.8701C116.937 69.4446 104.492 90.4931 86.7432 103.261C69.0507 115.988 44.8309 121.377 27.6315 108.001C11.702 95.6121 16.1028 72.5759 23.0259 53.708C29.0239 37.3612 41.4138 23.6958 58.923 22.7199Z" fill="url(#paint0_radial_11085_3276)"/>
<g filter="url(#filter2_f_11085_3276)">
<path fill-rule="evenodd" clip-rule="evenodd" d="M52.9296 35.6682C67.1361 30.5446 84.4963 31.3846 93.4645 44.4927C102.772 58.096 98.778 75.9983 89.3632 88.9199C79.9784 101.8 64.537 110.635 49.8631 104.334C36.2726 98.4987 34.3234 80.7695 35.0019 65.5774C35.5897 52.4154 41.1372 39.9211 52.9296 35.6682Z" fill="url(#paint1_radial_11085_3276)"/>
</g>
<defs>
<filter id="filter0_i_11085_3276" x="8.07861" y="21.2109" width="108.109" height="102.109" filterUnits="userSpaceOnUse" color-interpolation-filters="sRGB">
<feFlood flood-opacity="0" result="BackgroundImageFix"/>
<feBlend mode="normal" in="SourceGraphic" in2="BackgroundImageFix" result="shape"/>
<feColorMatrix in="SourceAlpha" type="matrix" values="0 0 0 0 0 0 0 0 0 0 0 0 0 0 0 0 0 0 127 0" result="hardAlpha"/>
<feOffset dy="2.57039"/>
<feGaussianBlur stdDeviation="16.0649"/>
<feComposite in2="hardAlpha" operator="arithmetic" k2="-1" k3="1"/>
<feColorMatrix type="matrix" values="0 0 0 0 1 0 0 0 0 0.375 0 0 0 0 0.92221 0 0 0 1 0"/>
<feBlend mode="normal" in2="shape" result="effect1_innerShadow_11085_3276"/>
</filter>
<filter id="filter1_i_11085_3276" x="11.2969" y="17.1406" width="103.458" height="111.168" filterUnits="userSpaceOnUse" color-interpolation-filters="sRGB">
<feFlood flood-opacity="0" result="BackgroundImageFix"/>
<feBlend mode="normal" in="SourceGraphic" in2="BackgroundImageFix" result="shape"/>
<feColorMatrix in="SourceAlpha" type="matrix" values="0 0 0 0 0 0 0 0 0 0 0 0 0 0 0 0 0 0 127 0" result="hardAlpha"/>
<feOffset dy="2.57039"/>
<feGaussianBlur stdDeviation="16.0649"/>
<feComposite in2="hardAlpha" operator="arithmetic" k2="-1" k3="1"/>
<feColorMatrix type="matrix" values="0 0 0 0 0.321569 0 0 0 0 0.478431 0 0 0 0 0.976471 0 0 0 1 0"/>
<feBlend mode="normal" in2="shape" result="effect1_innerShadow_11085_3276"/>
</filter>
<filter id="filter2_f_11085_3276" x="2.75541" y="0.616245" width="128.128" height="137.928" filterUnits="userSpaceOnUse" color-interpolation-filters="sRGB">
<feFlood flood-opacity="0" result="BackgroundImageFix"/>
<feBlend mode="normal" in="SourceGraphic" in2="BackgroundImageFix" result="shape"/>
<feGaussianBlur stdDeviation="16.0649" result="effect1_foregroundBlur_11085_3276"/>
</filter>
<radialGradient id="paint0_radial_11085_3276" cx="0" cy="0" r="1" gradientUnits="userSpaceOnUse" gradientTransform="translate(64.311 69.1898) rotate(90) scale(46.5883 47.5522)">
<stop offset="0.796875" stop-color="#222222" stop-opacity="0"/>
<stop offset="1" stop-color="#45E8FF"/>
</radialGradient>
<radialGradient id="paint1_radial_11085_3276" cx="0" cy="0" r="1" gradientUnits="userSpaceOnUse" gradientTransform="translate(66.6408 68.5486) rotate(-163.39) scale(41.1564 42.9559)">
<stop offset="0.515625" stop-color="#222222" stop-opacity="0"/>
<stop offset="1" stop-color="#E900CC"/>
</radialGradient>
</defs>
</svg>
