<svg xmlns="http://www.w3.org/2000/svg" xmlns:xlink="http://www.w3.org/1999/xlink" width="202" height="35" viewBox="0 0 202 35">
    <defs>
        <linearGradient id="a" x1="6.318" y1="25.46" x2="25.811" y2="25.46" gradientUnits="userSpaceOnUse" gradientTransform="translate(10.851 110.45) scale(1.00604)">
            <stop stop-color="#41C4FA"/>
            <stop offset=".05" stop-color="#49B1FA"/>
            <stop offset=".15" stop-color="#5891FA"/>
            <stop offset=".26" stop-color="#6576FA"/>
            <stop offset=".38" stop-color="#6E61FA"/>
            <stop offset=".51" stop-color="#7552FA"/>
            <stop offset=".67" stop-color="#7949FA"/>
            <stop offset=".92" stop-color="#7B47FB"/>
        </linearGradient>
    </defs>
    <path d="M10.852 120.448h5.402s6.012 12.776 6.045 12.833c0 0-2.015 3.543-5.397.033l-6.05-12.866Z" fill="#41c4fa" transform="matrix(.99192 0 0 .99192 -10.764 -111.38)"/>
    <path d="M20.96 138.863c2.789.742 4.335-.686 5.044-2.017.08-.151.98-1.93 1.731-3.783-2.854 3.75-5.184.85-5.435.218 0 0-2.091 3.554-5.424-.022.018.045.052.1.07.144.89 1.88 1.56 3.307 1.629 3.444.784 1.537 2.254 1.982 2.385 2.016Z" fill="url(#a)" style="fill:url(#a)" transform="matrix(.99192 0 0 .99192 -10.764 -111.38)"/>
    <path d="M27.681 133.189c-2.848 3.538-5.125.758-5.386.093l6.045-12.822h5.386l-6.045 12.73Z" fill="#e900cc" transform="matrix(.99192 0 0 .99192 -10.764 -111.38)"/>
    <path d="M43.25 119.415c-5.424 0-9.822 4.401-9.822 9.831s4.398 9.831 9.822 9.831c5.424 0 9.821-4.401 9.821-9.831s-4.397-9.831-9.821-9.831Zm0 15.195a5.361 5.361 0 0 1-5.36-5.364c0-2.963 2.4-5.364 5.36-5.364a5.361 5.361 0 0 1 5.359 5.364c0 2.963-2.4 5.364-5.36 5.364ZM65.603 125.722h4.674s-.17-5.177-5.59-6.053c0 0-6.412-1.028-8.587 2.475-.038 0-2.252 3.006 0 6.072 0-.037 1.145 1.732 5.343 2.57 0 .038 5.229.837 4.236 3.236-.076.418-1.908 2.284-4.885.723 0 0-.916-.419-1.298-1.98H54.65s.356 2.877 2.444 4.48c.117.09.232.18.347.272.491.389 2.4 1.787 6.217 1.53 1.522-.103 3.13-.433 4.389-1.295 1.123-.77 2.205-2.183 2.366-3.807-.014.107.584-2.763-2.302-4.777.024.038-.751-.743-5.675-1.96 0-.065-2.39-.428-2.634-1.888a1.43 1.43 0 0 1 .543-1.348c.669-.528 2.893-.953 4.343 0 0 .037.763.342.916 1.75ZM169.09 125.723h4.675s-.17-5.178-5.59-6.053c0 0-6.412-1.028-8.587 2.474-.038 0-2.252 3.006 0 6.072 0-.037 1.145 1.732 5.343 2.57 0 .038 5.228.837 4.236 3.236-.076.418-1.908 2.284-4.885.723 0 0-.916-.419-1.298-1.98h-4.847s.356 2.877 2.444 4.48c.116.09.232.18.347.272.49.389 2.4 1.788 6.216 1.53 1.523-.103 3.132-.433 4.39-1.294 1.123-.77 2.205-2.183 2.366-3.807-.014.107.584-2.764-2.302-4.778.024.038-.752-.743-5.675-1.96 0-.065-2.39-.427-2.634-1.888a1.433 1.433 0 0 1 .542-1.348c.67-.528 2.894-.952 4.344 0 0 .038.763.342.916 1.75ZM152.212 125.723h4.674s-.17-5.178-5.59-6.053c0 0-6.412-1.028-8.588 2.474-.037 0-2.251 3.006 0 6.072 0-.037 1.146 1.732 5.345 2.57 0 .038 5.228.837 4.236 3.236-.077.418-1.909 2.284-4.885.723 0 0-.917-.419-1.298-1.98h-4.847s.356 2.877 2.443 4.48c.117.09.232.18.347.272.491.389 2.4 1.788 6.217 1.53 1.522-.103 3.13-.433 4.39-1.294 1.123-.77 2.204-2.183 2.365-3.807-.014.107.585-2.764-2.302-4.778.025.038-.751-.743-5.675-1.96 0-.065-2.39-.427-2.633-1.888a1.429 1.429 0 0 1 .542-1.348c.669-.528 2.893-.952 4.343 0 0 .038.764.342.916 1.75ZM194.827 125.723h4.674s-.17-5.178-5.59-6.053c0 0-6.412-1.028-8.587 2.474-.038 0-2.252 3.006 0 6.072 0-.037 1.145 1.732 5.343 2.57 0 .038 5.229.837 4.237 3.236-.077.418-1.909 2.284-4.886.723 0 0-.916-.419-1.297-1.98h-4.847s.356 2.877 2.443 4.48c.117.09.232.18.347.272.491.389 2.4 1.788 6.217 1.53 1.522-.103 3.13-.433 4.39-1.294 1.123-.77 2.204-2.183 2.365-3.807-.014.107.585-2.764-2.302-4.778.025.038-.751-.743-5.675-1.96 0-.065-2.391-.427-2.633-1.888a1.429 1.429 0 0 1 .542-1.348c.669-.528 2.893-.952 4.343 0 0 .038.763.342.916 1.75ZM70.455 119.977h5.5l4.905 13.106 4.258-13.106h5.32l-6.957 19.105s-2.583 8.98-10.178 8.063v-4.7s3.836.344 4.9-3.669c0-.076-7.748-18.8-7.748-18.8ZM99.53 119.639c-5.019 0-9.088 4.077-9.088 9.105v10.218h4.764v-10.237a4.328 4.328 0 0 1 4.324-4.332 4.328 4.328 0 0 1 4.324 4.332v10.237h4.764v-10.218c0-5.028-4.069-9.105-9.088-9.105Z" fill="#dfdfdf" transform="matrix(.99192 0 0 .99192 -10.764 -111.38)"/>
    <g fill="#dfdfdf">
        <path d="M128.742 119.4c-5.424 0-9.344 4.4-9.344 9.83s3.92 9.832 9.344 9.832c5.424 0 9.346-4.402 9.346-9.832 0-5.43-3.922-9.83-9.346-9.83Zm0 15.195c-2.96 0-5.031-2.402-5.031-5.365 0-2.962 2.071-5.364 5.031-5.364 2.96 0 5.032 2.402 5.032 5.364 0 2.963-2.072 5.365-5.032 5.365Z" transform="matrix(.99192 0 0 .99192 -10.764 -111.38)"/>
        <path d="M134.496 119.517h4.764v18.69h-4.764z" transform="matrix(.99192 0 0 .99192 -10.764 -111.38)"/>
    </g>
    <g fill="#dfdfdf">
        <path d="M177.626 120.02h4.764v18.823h-4.764Z" transform="matrix(.99192 0 0 .99192 -11.829 -111.38)"/>
        <path d="M177.408 115.248a2.6 2.6 0 0 1 5.2 0 2.6 2.6 0 0 1-5.2 0Z" transform="matrix(.99192 0 0 .99192 -11.829 -111.38)"/>
    </g>
    <path d="M214.08 119.334v3.587h-13.958v-3.587Zm-9.163-5.376h4.462v18.08c0 .866.13 1.519.388 1.957.258.428.591.722 1 .882.417.15.87.224 1.358.224.358 0 .671-.025.94-.075.268-.05.478-.09.626-.12l.806 3.692c-.258.1-.627.2-1.103.299-.478.11-1.075.17-1.791.18a7.85 7.85 0 0 1-3.284-.629 5.633 5.633 0 0 1-2.463-2.032c-.626-.917-.94-2.067-.94-3.452Z" fill="#dfdfdf" transform="matrix(.99192 0 0 .99192 -10.764 -111.38)"/>
</svg>
